<svg width="35" height="30" viewBox="0 0 35 30" fill="none" xmlns="http://www.w3.org/2000/svg">
    <path d="M7.29167 27.8366C5.93796 27.8366 4.63969 27.3047 3.68248 26.358C2.72526 25.4113 2.1875 24.1273 2.1875 22.7885C2.1875 21.4496 2.72526 20.1656 3.68248 19.219C4.63969 18.2723 5.93796 17.7404 7.29167 17.7404C8.64538 17.7404 9.94364 18.2723 10.9009 19.219C11.8581 20.1656 12.3958 21.4496 12.3958 22.7885C12.3958 24.1273 11.8581 25.4113 10.9009 26.358C9.94364 27.3047 8.64538 27.8366 7.29167 27.8366ZM7.29167 15.5769C5.3578 15.5769 3.50313 16.3367 2.13568 17.6892C0.768227 19.0416 0 20.8759 0 22.7885C0 24.7011 0.768227 26.5354 2.13568 27.8878C3.50313 29.2402 5.3578 30 7.29167 30C9.22554 30 11.0802 29.2402 12.4477 27.8878C13.8151 26.5354 14.5833 24.7011 14.5833 22.7885C14.5833 20.8759 13.8151 19.0416 12.4477 17.6892C11.0802 16.3367 9.22554 15.5769 7.29167 15.5769ZM21.5833 12.6923H27.7083V10.0962H23.0417L20.2125 5.37982C19.7896 4.65867 18.9583 4.18271 18.0833 4.18271C17.3979 4.18271 16.7708 4.45675 16.3333 4.90386L10.9375 10.226C10.4854 10.6731 10.2083 11.25 10.2083 11.9712C10.2083 12.8798 10.6896 13.6442 11.4479 14.0914L16.3333 17.0192V24.2308H18.9583V14.8558L15.6771 12.476L19.0604 9.08655M27.7083 27.8366C26.3546 27.8366 25.0564 27.3047 24.0991 26.358C23.1419 25.4113 22.6042 24.1273 22.6042 22.7885C22.6042 21.4496 23.1419 20.1656 24.0991 19.219C25.0564 18.2723 26.3546 17.7404 27.7083 17.7404C29.062 17.7404 30.3603 18.2723 31.3175 19.219C32.2747 20.1656 32.8125 21.4496 32.8125 22.7885C32.8125 24.1273 32.2747 25.4113 31.3175 26.358C30.3603 27.3047 29.062 27.8366 27.7083 27.8366ZM27.7083 15.5769C25.7745 15.5769 23.9198 16.3367 22.5523 17.6892C21.1849 19.0416 20.4167 20.8759 20.4167 22.7885C20.4167 24.7011 21.1849 26.5354 22.5523 27.8878C23.9198 29.2402 25.7745 30 27.7083 30C28.6659 30 29.6141 29.8135 30.4987 29.4511C31.3834 29.0887 32.1872 28.5575 32.8643 27.8878C33.5414 27.2182 34.0785 26.4232 34.445 25.5482C34.8114 24.6733 35 23.7355 35 22.7885C35 21.8414 34.8114 20.9037 34.445 20.0287C34.0785 19.1538 33.5414 18.3588 32.8643 17.6892C32.1872 17.0195 31.3834 16.4883 30.4987 16.1259C29.6141 15.7635 28.6659 15.5769 27.7083 15.5769ZM23.3333 5.19232C24.7917 5.19232 25.9583 4.03848 25.9583 2.59617C25.9583 1.15386 24.7917 1.52588e-05 23.3333 1.52588e-05C21.875 1.52588e-05 20.7083 1.15386 20.7083 2.59617C20.7083 4.03848 21.875 5.19232 23.3333 5.19232Z"
          fill="#0A061E"/>
</svg>
